/* XPM */
static char *be1779b2ba1f489da814567b52dca25ajI4Bj3Yu40DoMtux[] = {
/* columns rows colors chars-per-pixel */
"50 50 10 1 ",
"  c gray46",
". c #F8BBD0",
"X c #E1BEE7",
"o c #B2DFDB",
"O c #90CAF9",
"+ c #BBDEFB",
"@ c #FFCDD2",
"# c #E3D7EC",
"$ c #E0F7FA",
"% c white",
/* pixels */
"$ooooooooooooooooooooooo$oooooooooooooooooooooooo$",
"o$$$$$$$$$$$$$$$$$$$$$$$o$$$$$$$$$$$$$$$$$$$$$$$$o",
"o$$$$$$$$$$$$$$$$$$$$$$$o$$$$$$$$$$$$$$$$$$$$$$$$o",
"o$$$$$$$$$$$$$$$$$$$$$$$o$$$$$$$$$$$$$$$$$$$$$$$$o",
"o$$$$$$$$$$$$   $$$$$$$$o$$$$$$$$   $$$$$$$$$$$$$o",
"o$$$$$$$$$$$ ### $$$$$$$o$$$$$$$ ### $$$$$$$$$$$$o",
"o$$$$$$$$$$$ #.# $$$$$$$o$$$$$$$ #.# $$$$$$$$$$$$o",
"o$$$$$$$$$$ #... $$$$$$$o$$$$$$$ ...# $$$$$$$$$$$o",
"o$$$$$$$$$$ #...# $$         $$ #...# $$$$$$$$$$$o",
"o$$$$$$$$$$ #....#  #########  #....# $$$$$$$$$$$o",
"o$$$$$$$$$$ #.... ############# ....# $$$$$$$$$$$o",
"o$$$$$$$$$$ #... ############### ..## $$$$$$$$$$$o",
"o$$$$$$$$$$ ##. ##XXXX#####XXXX## ## $$$$$$$$$$$$o",
"o$$$$$$$$$$$ # ##XXXXXX###XXXXXX##  $$$$$$$$$$$$$o",
"o$$$$$$$$$$$$  ###%%%%%###%%%%%### $$$$$$$$$$$$$$o",
"o$$$$$$$$$$$$$ ####%@%#####%@%#### $$$$$$$$$$$$$$o",
"o$$$$$$$$$$$$$ ####%@%#####%@%#### $$$$$$$$$$$$$$o",
"o$$$$$$$$$$$$$ ################### $$$$$$$$$$$$$$o",
"o$$$$$$$$$$$$  ########XXX########  $$$$$$$$$$$$$o",
"o$$$$$$$$$$$ ###########X########### $$$$$$$$$$$$o",
"o$$$$$$$$$$ ######################### $$$$$$$$$$$o",
"o$$$$$$$$$$     ######X###X######     $$$$$$$$$$$o",
"o$$$$$$$$$$$$$$$ ######XXX###### $$$$$$$$$$$$$$$$o",
"o$$$$$$$$$$$$$$$  #############  $$$$$$$$$$$$$$$$o",
"$oooooooooooooo ##             ## ooooooooooooooo$",
"o$$$$$$$$$$$$$  #################  $$$$$$$$$$$$$$o",
"o$$$$$$              ############# $$$$$$$$$$$$$$o",
"o$$$$$$ OOOOOOOOOOOO ############# $$$$$$$$$$$$$$o",
"o$$$$$$ OOOOOOOOOOOO ############## $$$$$$$$$$$$$o",
"o$$$$$$ OO++++++++OO ########## ### $$$$$$$$$$$$$o",
"o$$$$$$ OO++++++++OO ########## ### $$$$$$$$$$$$$o",
"o$$$$$$ OO++++++++OO                       $$$$$$o",
"o$$$$$$ OO++++++++OOOOOOOOOOOOOOOOOOOOOOOO $$$$$$o",
"o$$$$$$ OO++++++++OOOOOOOOOOOOOOOOOOOOOOOO $$$$$$o",
"o$$$$$$ OO++++++++OOOOOOOOOOOOOOOOOOOOOOOO $$$$$$o",
"o$$$$$$ OO++++++++OO              OO    OO $$$$$$o",
"o$$$$$$ OO++++++++OO .......##### OO $$ OO $$$$$$o",
"o$$$$$$ OOOOOOOOOOOO ........#### OO $$ OO $$$$$$o",
"o$$$$$$ OOOOOOOOOOOO ........#### ++ $$ ++ $$$$$$o",
"o$$$$$$              ........####    $$    $$$$$$o",
"o$$$$$$$$$$$$$ #####.........##### $$$$$$$$$$$$$$o",
"o$$$$$$$$$$$$$ #####.........##### $$$$$$$$$$$$$$o",
"o$$$$$$$$$$$$$  ####.........####  $$$$$$$$$$$$$$o",
"o$$$$$$$$$$$$    ####.......####    $$$$$$$$$$$$$o",
"o$$$$$$$$$$$$ ##   ###.....###   ## $$$$$$$$$$$$$o",
"o$$$$$$$$$$$$ ####             #### $$$$$$$$$$$$$o",
"o$$$$$$$$$$$ ##### $$$$$o$$$$$ ##### $$$$$$$$$$$$o",
"o$$$$$$$$$$$  ##### $$$$o$$$$ #####  $$$$$$$$$$$$o",
"o$$$$$$$$$$$$       $$$$o$$$$       $$$$$$$$$$$$$o",
"$ooooooooooooooooooooooo$oooooooooooooooooooooooo$"
};
