/* XPM */
static char *fb5f6edd45d249abdb16ad2a1d667381kHmDybMaydnP24Ad[] = {
/* columns rows colors chars-per-pixel */
"50 50 2 1 ",
"  c #B2DFDB",
". c #E0F7FA",
/* pixels */
".                       .                        .",
" ....................... ........................ ",
" ....................... ........................ ",
" ....................... ........................ ",
" ....................... ........................ ",
" ....................... ........................ ",
" ....................... ........................ ",
" ....................... ........................ ",
" ....................... ........................ ",
" ....................... ........................ ",
" ....................... ........................ ",
" ....................... ........................ ",
" ....................... ........................ ",
" ....................... ........................ ",
" ....................... ........................ ",
" ....................... ........................ ",
" ....................... ........................ ",
" ....................... ........................ ",
" ....................... ........................ ",
" ....................... ........................ ",
" ....................... ........................ ",
" ....................... ........................ ",
" ....................... ........................ ",
" ....................... ........................ ",
".                       .                        .",
" ....................... ........................ ",
" ....................... ........................ ",
" ....................... ........................ ",
" ....................... ........................ ",
" ....................... ........................ ",
" ....................... ........................ ",
" ....................... ........................ ",
" ....................... ........................ ",
" ....................... ........................ ",
" ....................... ........................ ",
" ....................... ........................ ",
" ....................... ........................ ",
" ....................... ........................ ",
" ....................... ........................ ",
" ....................... ........................ ",
" ....................... ........................ ",
" ....................... ........................ ",
" ....................... ........................ ",
" ....................... ........................ ",
" ....................... ........................ ",
" ....................... ........................ ",
" ....................... ........................ ",
" ....................... ........................ ",
" ....................... ........................ ",
".                       .                        ."
};
