/* XPM */
static char *ccee2680c9c84209d744733a3e94390b58x9To2xJ93Gyizk[] = {
/* columns rows colors chars-per-pixel */
"50 50 5 1 ",
"  c gray46",
". c #B2DFDB",
"X c #90CAF9",
"o c #BBDEFB",
"O c #E0F7FA",
/* pixels */
"O.......................O........................O",
".OOOOOOOOOOOOOOOOOOOOOOO.OOOOOOOOOOOOOOOOOOOOOOOO.",
".OOOOOOOOOOOOOOOOOOOOOOO.OOOOOOOOOOOOOOOOOOOOOOOO.",
".OOOOOOOOOOOOOOOOOOOOOOO.OOOOOOOOOOOOOOOOOOOOOOOO.",
".OOOOOOOOOOOOOOOOOOOOOOO.OOOOOOOOOOOOOOOOOOOOOOOO.",
".OOOOOOOOOOOOOOOOOOOOOOO.OOOOOOOOOOOOOOOOOOOOOOOO.",
".OOOOOOOOOOOOOOOOOOOOOOO.OOOOOOOOOOOOOOOOOOOOOOOO.",
".OOOOOOOOOOOOOOOOOOOOOOO.OOOOOOOOOOOOOOOOOOOOOOOO.",
".OOOOOOOOOOOOOOOOOOOOOOO.OOOOOOOOOOOOOOOOOOOOOOOO.",
".OOOOOOOOOOOOOOOOOOOOOOO.OOOOOOOOOOOOOOOOOOOOOOOO.",
".OOOOOOOOOOOOOOOOOOOOOOO.OOOOOOOOOOOOOOOOOOOOOOOO.",
".OOOOOOOOOOOOOOOOOOOOOOO.OOOOOOOOOOOOOOOOOOOOOOOO.",
".OOOOOOOOOOOOOOOOOOOOOOO.OOOOOOOOOOOOOOOOOOOOOOOO.",
".OOOOOOOOOOOOOOOOOOOOOOO.OOOOOOOOOOOOOOOOOOOOOOOO.",
".OOOOOOOOOOOOOOOOOOOOOOO.OOOOOOOOOOOOOOOOOOOOOOOO.",
".OOOOOOO              OO.OOOOOOOOOOOOOOOOOOOOOOOO.",
".OOOOOOO XXXXXXXXXXXX OO.OOOOOOOOOOOOOOOOOOOOOOOO.",
".OOOOOOO XXXXXXXXXXXX OO.OOOOOOOOOOOOOOOOOOOOOOOO.",
".OOOOOOO XXooooooooXX OO.OOOOOOOOOOOOOOOOOOOOOOOO.",
".OOOOOOO XXooooooooXX OO.OOOOOOOOOOOOOOOOOOOOOOOO.",
".OOOOOOO XXooooooooXX                       OOOOO.",
".OOOOOOO XXooooooooXXXXXXXXXXXXXXXXXXXXXXXX OOOOO.",
".OOOOOOO XXooooooooXXXXXXXXXXXXXXXXXXXXXXXX OOOOO.",
".OOOOOOO XXooooooooXXXXXXXXXXXXXXXXXXXXXXXX OOOOO.",
"O....... XXooooooooXX              XX    XX .....O",
".OOOOOOO XXooooooooXX OO.OOOOOOOOO XX OO XX OOOOO.",
".OOOOOOO XXXXXXXXXXXX OO.OOOOOOOOO XX OO XX OOOOO.",
".OOOOOOO XXXXXXXXXXXX OO.OOOOOOOOO oo OO oo OOOOO.",
".OOOOOOO              OO.OOOOOOOOO    OO    OOOOO.",
".OOOOOOOOOOOOOOOOOOOOOOO.OOOOOOOOOOOOOOOOOOOOOOOO.",
".OOOOOOOOOOOOOOOOOOOOOOO.OOOOOOOOOOOOOOOOOOOOOOOO.",
".OOOOOOOOOOOOOOOOOOOOOOO.OOOOOOOOOOOOOOOOOOOOOOOO.",
".OOOOOOOOOOOOOOOOOOOOOOO.OOOOOOOOOOOOOOOOOOOOOOOO.",
".OOOOOOOOOOOOOOOOOOOOOOO.OOOOOOOOOOOOOOOOOOOOOOOO.",
".OOOOOOOOOOOOOOOOOOOOOOO.OOOOOOOOOOOOOOOOOOOOOOOO.",
".OOOOOOOOOOOOOOOOOOOOOOO.OOOOOOOOOOOOOOOOOOOOOOOO.",
".OOOOOOOOOOOOOOOOOOOOOOO.OOOOOOOOOOOOOOOOOOOOOOOO.",
".OOOOOOOOOOOOOOOOOOOOOOO.OOOOOOOOOOOOOOOOOOOOOOOO.",
".OOOOOOOOOOOOOOOOOOOOOOO.OOOOOOOOOOOOOOOOOOOOOOOO.",
".OOOOOOOOOOOOOOOOOOOOOOO.OOOOOOOOOOOOOOOOOOOOOOOO.",
".OOOOOOOOOOOOOOOOOOOOOOO.OOOOOOOOOOOOOOOOOOOOOOOO.",
".OOOOOOOOOOOOOOOOOOOOOOO.OOOOOOOOOOOOOOOOOOOOOOOO.",
".OOOOOOOOOOOOOOOOOOOOOOO.OOOOOOOOOOOOOOOOOOOOOOOO.",
".OOOOOOOOOOOOOOOOOOOOOOO.OOOOOOOOOOOOOOOOOOOOOOOO.",
".OOOOOOOOOOOOOOOOOOOOOOO.OOOOOOOOOOOOOOOOOOOOOOOO.",
".OOOOOOOOOOOOOOOOOOOOOOO.OOOOOOOOOOOOOOOOOOOOOOOO.",
".OOOOOOOOOOOOOOOOOOOOOOO.OOOOOOOOOOOOOOOOOOOOOOOO.",
".OOOOOOOOOOOOOOOOOOOOOOO.OOOOOOOOOOOOOOOOOOOOOOOO.",
".OOOOOOOOOOOOOOOOOOOOOOO.OOOOOOOOOOOOOOOOOOOOOOOO.",
"O.......................O........................O"
};
