/* XPM */
static char *ef5777383135471fc1c7b9850895f91fljZBNqqwRGufHNkk[] = {
/* columns rows colors chars-per-pixel */
"50 50 6 1 ",
"  c gray11",
". c #402207",
"X c #4A2B10",
"o c gray47",
"O c #B2DFDB",
"+ c #E0F7FA",
/* pixels */
"+OOOOOOOOOOOOOOOOOOOOOOO+OOOOOOOOOOOOOOOOOOOOOOOO+",
"O+++++++++++++++++++++++O++++++++++++++++++++++++O",
"O+++++++++++++++++++++++O++++++++++++++++++++++++O",
"O+++++++++++++++++++++++O++++++++++++++++++++++++O",
"O+++++++++++++++++++++++O++++++++++++++++++++++++O",
"O+++++++++++++++++++++++O++++++++++++++++++++++++O",
"O+++++oooooooooooooooooooooooooooooooooooooo+++++O",
"O+++++ooo................................ooo+++++O",
"O+++++ooXXX...............................oo+++++O",
"O+++++o...............XXXXXXXXXX...........o+++++O",
"O+++++o....................................o+++++O",
"O+++++o....................................o+++++O",
"O+++++o.....XXXXX..........................o+++++O",
"O+++++o..........................XXXXXXX...o+++++O",
"O+++++o....................................o+++++O",
"O+++++o....................................o+++++O",
"O+++++o........................XXXXXX......o+++++O",
"O+++++o....XXXXXX..........................o+++++O",
"O+++++oXX........XXX.......................o+++++O",
"O+++++o.............oooooooooo.............o+++++O",
"O+++++o............oooooooooooo............o+++++O",
"O+++++o............oooo    oooo............o+++++O",
"O+++++oooo...oooo..ooo      ooo..oooo...oooo+++++O",
"O+++++o.XXo.o....ooooo      ooooo....o.o...o+++++O",
"+OOOOOo..ooo......oooo      oooo..XXX.ooo..oOOOOO+",
"O+++++o...o.o....oooooo    oooooo....o.o...o+++++O",
"O+++++oooo...oooo..ooooo  ooooo..oooo...oooo+++++O",
"O+++++o............ooooo  ooooo............o+++++O",
"O+++++o............ooooo  ooooo.......XXX..o+++++O",
"O+++++oXXXX........oooooooooooo............o+++++O",
"O+++++o.............oooooooooo.............o+++++O",
"O+++++o....................................o+++++O",
"O+++++o............................XXXXX...o+++++O",
"O+++++o....................................o+++++O",
"O+++++o....................................o+++++O",
"O+++++o...XXXXXXX..........XXXXXX..........o+++++O",
"O+++++o....................................o+++++O",
"O+++++o....................................o+++++O",
"O+++++o....................................o+++++O",
"O+++++o.....XXXXXXXX....XXXXX........XXXXX.o+++++O",
"O+++++o..................................XXo+++++O",
"O+++++oo..................................oo+++++O",
"O+++++ooo................................ooo+++++O",
"O+++++oooooooooooooooooooooooooooooooooooooo+++++O",
"O+++++++++++++++++++++++O++++++++++++++++++++++++O",
"O+++++++++++++++++++++++O++++++++++++++++++++++++O",
"O+++++++++++++++++++++++O++++++++++++++++++++++++O",
"O+++++++++++++++++++++++O++++++++++++++++++++++++O",
"O+++++++++++++++++++++++O++++++++++++++++++++++++O",
"+OOOOOOOOOOOOOOOOOOOOOOO+OOOOOOOOOOOOOOOOOOOOOOOO+"
};
