/* XPM */
static char *_f0a290e634f4ceb9666eca1fb032348hcLTYK5cP7Fx7Z4W[] = {
/* columns rows colors chars-per-pixel */
"50 50 7 1 ",
"  c #3E2723",
". c #5D4037",
"X c gray38",
"o c gray46",
"O c #B2DFDB",
"+ c gray88",
"@ c #FFEBEE",
/* pixels */
"@OOOOOOOOOOOOOOOOOOOOOOO@OOOOOOOOOOOOOOOOOOOOOOOO@",
"O@@@@@@@@@@@@@@@@@@@@@@@O@@@@@@@@@@@@@@@@@@@@@@@@O",
"O@@@@@@@@@@@@@@@@@@@@@@@O@@@@@@@@@@@@@@@@@@@@@@@@O",
"O@@@@@@@@@@@@@@@@@@@@@@@O@@@@@@@@@@@@@@@@@@@@@@@@O",
"O@@@@@@@@@@@@@@@@@@@@@@@O@@@@@@@@@@@@@@@@@@@@@@@@O",
"O@@@@ooooooooooooooooooooooooooooooooooooooo@@@@@O",
"O@@@@ooooooooooooooooooooooooooooooooooooooo@@@@@O",
"O@@@@oo              .....................oo@@@@@O",
"O@@@@oo...................................oo@@@@@O",
"O@@@@oo......             ................oo@@@@@O",
"O@@@@oo...................             ...oo@@@@@O",
"O@@@@oo...................................oo@@@@@O",
"@O@@@oo...................................oo@@@@O@",
"O@@@@oo...................................oo@@@@@O",
"O@@@@oo...................................oo@@@@@O",
"O@@@@oo...................................oo@@@@@O",
"O@@@@oo..   ..............................oo@@@@@O",
"O@@@@oo.....                        ......oo@@@@@O",
"O@@@@oo...................................oo@@@@@O",
"O@@@@oo...................................oo@@@@@O",
"O@@@@oo...................................oo@@@@@O",
"O@@@@oo...................................oo@@@@@O",
"O@@@@oo......................            .oo@@@@@O",
"O@@@@oo...................................oo@@@@@O",
"@OOOOoo.....            ..................ooOOOOO@",
"O@@@@oo...................................oo@@@@@O",
"O@@@@oo...................................oo@@@@@O",
"O@@@@oo.                 ........     ....oo@@@@@O",
"O@@@@oo...............................    oo@@@@@O",
"O@@@@oo...................................oo@@@@@O",
"O@@@@oo...................................oo@@@@@O",
"O@@@@oo...................................oo@@@@@O",
"O@@@@oo.............ooooooooo.          ..oo@@@@@O",
"O@@@@oo.............o+++++++o.............oo@@@@@O",
"O@@@@oo..         ..o++XXX++o.............oo@@@@@O",
"O@@@@oo.............o++XXX++o.............oo@@@@@O",
"O@@@@oo.............o++XXX++o.............oo@@@@@O",
"@O@@@oo.............o+++X+++o..     ......oo@@@@O@",
"O@@@@oo.....    ....o++XXX++o.......    ..oo@@@@@O",
"O@@@@oo.........   .o+++X+++o.............oo@@@@@O",
"O@@@@oo.............o+++++++o.............oo@@@@@O",
"O@@@@oo.............ooooooooo.............oo@@@@@O",
"O@@@@oo...................................oo@@@@@O",
"O@@@@ooooooooooooooooooooooooooooooooooooooo@@@@@O",
"O@@@@ooooooooooooooooooooooooooooooooooooooo@@@@@O",
"O@@@@@@@@@@@@@@@@@@@@@@@O@@@@@@@@@@@@@@@@@@@@@@@@O",
"O@@@@@@@@@@@@@@@@@@@@@@@O@@@@@@@@@@@@@@@@@@@@@@@@O",
"O@@@@@@@@@@@@@@@@@@@@@@@O@@@@@@@@@@@@@@@@@@@@@@@@O",
"O@@@@@@@@@@@@@@@@@@@@@@@O@@@@@@@@@@@@@@@@@@@@@@@@O",
"@OOOOOOOOOOOOOOOOOOOOOOO@OOOOOOOOOOOOOOOOOOOOOOOO@"
};
