/* XPM */
static char *f9e28beebc8446ee84b603815e6fc173hbBmbWvhw5e4Mfdc[] = {
/* columns rows colors chars-per-pixel */
"50 50 11 1 ",
"  c #402207",
". c #4A2B10",
"X c gray46",
"o c gray47",
"O c #F8BBD0",
"+ c #E1BEE7",
"@ c #B2DFDB",
"# c #FFCDD2",
"$ c #E3D7EC",
"% c #E0F7FA",
"& c white",
/* pixels */
"%@@@@@@@@@@@@@@@@@@@@@@@%@@@@@@@@@@@@@@@@@@@@@@@@%",
"@%%%%%%%%%%%%%%%%%%%%%%%@%%%%%%%%%%%%%%%%%%%%%%%%@",
"@%%%%%%%%%%%%%%%%%%%%%%%@%%%%%%%%%%%%%%%%%%%%%%%%@",
"@%%%%%%%%%%%%%%%%%%%%%%%@%%%%%%%%%%%%%%%%%%%%%%%%@",
"@%%%%%%%%%%%%XXX%%%%%%%%@%%%%%%%%XXX%%%%%%%%%%%%%@",
"@%%%%%%%%%%%X$$$X%%%%%%%@%%%%%%%X$$$X%%%%%%%%%%%%@",
"@%%%%%ooooooX$O$XoooooooooooooooX$O$Xooooooo%%%%%@",
"@%%%%%ooo  X$OOOX               XOOO$X   ooo%%%%%@",
"@%%%%%oo...X$OOO$X  XXXXXXXXX  X$OOO$X    oo%%%%%@",
"@%%%%%o    X$OOOO$XX$$$$$$$$$XX$OOOO$X     o%%%%%@",
"@%%%%%o    X$OOOOX$$$$$$$$$$$$$XOOOO$X     o%%%%%@",
"@%%%%%o    X$OOOX$$$$$$$$$$$$$$$XOO$$X     o%%%%%@",
"@%%%%%o    X$$OX$$++++$$$$$++++$$X$$X      o%%%%%@",
"@%%%%%o     X$X$$++++++$$$++++++$$XX....   o%%%%%@",
"@%%%%%o      XX$$$&&&&&$$$&&&&&$$$X        o%%%%%@",
"@%%%%%o       X$$$$&#&$$$$$&#&$$$$X        o%%%%%@",
"@%%%%%o       X$$$$&#&$$$$$&#&$$$$X..      o%%%%%@",
"@%%%%%o    ...X$$$$$$$$$$$$$$$$$$$X        o%%%%%@",
"@%%%%%o..    XX$$$$$$$$+++$$$$$$$$XX       o%%%%%@",
"@%%%%%o     X$$$$$$$$$$$+$$$$$$$$$$$X      o%%%%%@",
"@%%%%%o    X$$$$$$$$$$$$$$$$$$$$$$$$$X     o%%%%%@",
"@%%%%%o    XXXXX$$$$$$+$$$+$$$$$$XXXXX     o%%%%%@",
"@%%%%%oooo   oooX$$$$$$+++$$$$$$Xoooo   oooo%%%%%@",
"@%%%%%o ..o o   XX$$$$$$$$$$$$$XX    o o   o%%%%%@",
"%@@@@@o  ooo   X$$XXXXXXXXXXXXX$$X... ooo  o@@@@@%",
"@%%%%%o   o o XX$$$$$$$$$$$$$$$$$XX  o o   o%%%%%@",
"@%%%%%oooo   oX$$$$$$$$$$$$$$$$$$$Xoo   oooo%%%%%@",
"@%%%%%o       X$$$$$$$$$$$$$$$$$$$X        o%%%%%@",
"@%%%%%o      X$$$$$$$$$$$$$$$$$$$$$X  ...  o%%%%%@",
"@%%%%%o....  X$$$X$$$$$$$$$$$$$X$$$X       o%%%%%@",
"@%%%%%o      X$$$X$$$$$$$$$$$$$X$$$X       o%%%%%@",
"@%%%%%o      X$$$X$$$$$$$$$$$$$X$$$X       o%%%%%@",
"@%%%%%o      X$$$X$$$$$$$$$$$$$X$$$X....   o%%%%%@",
"@%%%%%o      X$$$X$$$$$$$$$$$$$X$$$X       o%%%%%@",
"@%%%%%o      X$$XX$$$$$$$$$$$$$X$$$X       o%%%%%@",
"@%%%%%o   ...X$$X$$$$$OOOOO$$$$$X$$X       o%%%%%@",
"@%%%%%o      X$X$$$$$OOOOOOO$$$$$X$X       o%%%%%@",
"@%%%%%o      XX$$$$$OOOOOOOOO$$$$$XX       o%%%%%@",
"@%%%%%o       X$$$$$OOOOOOOOO$$$$$X        o%%%%%@",
"@%%%%%o     ..X$$$$$OOOOOOOOO$$$$$X  ..... o%%%%%@",
"@%%%%%o       X$$$$$OOOOOOOOO$$$$$X      ..o%%%%%@",
"@%%%%%oo      X$$$$$OOOOOOOOO$$$$$X       oo%%%%%@",
"@%%%%%ooo     XX$$$$OOOOOOOOO$$$$XX      ooo%%%%%@",
"@%%%%%oooooooXXXX$$$$OOOOOOO$$$$XXXXoooooooo%%%%%@",
"@%%%%%%%%%%%%X$$XXX$$$OOOOO$$$XXX$$X%%%%%%%%%%%%%@",
"@%%%%%%%%%%%%X$$$$XXXXXXXXXXXXX$$$$X%%%%%%%%%%%%%@",
"@%%%%%%%%%%%X$$$$$X%%%%%@%%%%%X$$$$$X%%%%%%%%%%%%@",
"@%%%%%%%%%%%XX$$$$$X%%%%@%%%%X$$$$$XX%%%%%%%%%%%%@",
"@%%%%%%%%%%%%XXXXXXX%%%%@%%%%XXXXXXX%%%%%%%%%%%%%@",
"%@@@@@@@@@@@@@@@@@@@@@@@%@@@@@@@@@@@@@@@@@@@@@@@@%"
};
